<?xml version="1.0" encoding="utf-8"?>
<!-- Generator: Adobe Illustrator 24.2.0, SVG Export Plug-In . SVG Version: 6.00 Build 0)  -->
<svg version="1.1" xmlns="http://www.w3.org/2000/svg" xmlns:xlink="http://www.w3.org/1999/xlink" x="0px" y="0px"
	 viewBox="0 0 50 50" style="enable-background:new 0 0 50 50;" xml:space="preserve">
<style type="text/css">
	.st0{display:none;}
	.st1{display:inline;fill-rule:evenodd;clip-rule:evenodd;fill:#7660A8;}
	.st2{display:inline;fill:#7660A8;}
	.st3{fill:#705C9F;}
	.st4{fill-rule:evenodd;clip-rule:evenodd;fill:#705C9F;}
</style>
<g id="레이어_1" class="st0">
	<path class="st1" d="M18.8,25.9c4.3-6.3,5.9-8.1,5.6-11.7c-0.3-3.6,0.5-4.6,2.2-4.8c1.7-0.2,5,0.8,5.6,6.7c0.2,2.6-1.6,7.7-1.6,7.7
		s11.9,0,13.1,0c1.8,0,3.3,0.8,3.3,3.3c0,2.3-2.6,3-2.6,3s1.7,0.6,1.7,2.6c0,2-1.7,2.9-2.9,2.9c0.7,0.3,1.7,1,1.5,2.7
		c-0.2,1.7-1.4,2.3-2.7,2.7c0.8,0.5,1.4,1.8,0.9,2.8c-0.6,1.4-2.1,2.9-5.6,2.9c-4.2,0-15.8,0-16.2,0c-1.2,0-2.1-0.6-2.3-1.2
		c0-1.4,0-18.7,0-18.7S18.7,26,18.8,25.9z"/>
	<path class="st1" d="M6.2,26.1h10v20.7H10L6.2,26.1z"/>
	<path class="st2" d="M4.5,11.1c-2-1.9-2-5-0.1-7s5-2,7-0.1c0,0,0.1,0.1,0.1,0.1l0.3,0.3l0.3-0.3c1.9-1.9,5.1-1.9,7,0s1.9,5.1,0,7
		l-6.8,6.8c-0.3,0.3-0.8,0.3-1.1,0c0,0,0,0,0,0L4.5,11.1z"/>
</g>
<g id="레이어_2">
	<path class="st3" d="M36.9,46.8H21.3c-1.5,0-2.7-0.7-3-1.8l0-0.1v-18c0-0.8,0.1-1,0.2-1.1l0,0c0.4-0.6,0.8-1.1,1.1-1.6
		c3.2-4.7,4.3-6.2,4.1-9.1c-0.2-3.1,0.2-5.2,2.9-5.5c0.2,0,0.3,0,0.5,0c0.8,0,2.2,0.2,3.5,1.5c1.3,1.2,2,3.2,2.3,5.7
		c0.2,1.9-0.7,5-1.2,6.6c2.9,0,10.5,0,11.4,0c1.9,0,4,1.3,4,4c0,1.7-0.9,2.6-1.6,3.1c0,0-0.1,0-0.1,0.1c0.4,0.5,0.8,1.2,0.8,2.2
		c0,1.5-0.9,2.5-2,3.1c0.4,0.6,0.7,1.3,0.7,2.1c0,1.1-0.4,2.4-2.1,3.2c0.3,0.6,0.5,1.3,0.4,2.3C42.8,45,40.5,46.8,36.9,46.8z
		 M19.9,44.6c0.1,0.2,0.6,0.5,1.4,0.5h15.6c1.7,0,2.8-0.5,3.4-0.8c0.8-0.5,1.1-1,1.1-1.4c0.1-0.7-0.1-1.2-0.7-1.8l-1-1l1.4-0.3
		c1.8-0.4,2-1.3,2-2c0-0.8-0.3-1.3-1-1.7L40,35l2.3-0.5c0.5-0.1,2.1-0.6,2.1-2c0-1.2-1.1-1.7-1.1-1.7l-2.6-1.2l2.8-0.4
		c0.2,0,1.8-0.3,1.8-2c0-2.3-2-2.4-2.3-2.4c-1.1,0-12.4,0-12.5,0l-1.2,0l0.4-1.1c0.5-1.3,1.7-5.1,1.5-7c-0.2-2.2-0.8-3.7-1.8-4.7
		c-0.9-0.9-1.9-1-2.4-1c-0.1,0-0.2,0-0.3,0c-0.7,0.1-1,0.3-1.1,0.6c-0.3,0.6-0.4,1.6-0.3,3.1c0.1,1.7-0.1,3.1-0.9,4.6
		c-0.7,1.5-1.8,3.1-3.5,5.5c-0.3,0.5-0.7,1-1,1.5c0,0.1,0,0.3,0,0.4V44.6z"/>
	<path class="st4" d="M6.2,26.1h10v20.7H10L6.2,26.1z"/>
	<g transform="translate(0,-952.36218)">
		<path class="st3" d="M7.6,954.9c-1.2,0-2.4,0.5-3.3,1.4c-1.8,1.9-1.8,4.9,0,6.8l7,7.4c0.2,0.2,0.5,0.2,0.8,0c0,0,0,0,0,0
			c2.3-2.5,4.7-4.9,7-7.4c1.8-1.9,1.8-4.9,0-6.8c-1.8-1.9-4.7-1.9-6.5,0l-0.9,1l-0.9-1C10,955.3,8.8,954.9,7.6,954.9z M7.6,955.9
			c0.9,0,1.8,0.4,2.5,1.1l1.3,1.4c0.2,0.2,0.5,0.2,0.8,0c0,0,0,0,0,0l1.3-1.4c1.4-1.5,3.6-1.5,5,0c1.4,1.5,1.4,3.8,0,5.3
			c-2.2,2.3-4.4,4.7-6.6,7l-6.6-7c-1.4-1.5-1.4-3.8,0-5.3C5.9,956.3,6.7,955.9,7.6,955.9L7.6,955.9z"/>
	</g>
</g>
</svg>
