<?xml version="1.0" encoding="utf-8"?>
<!-- Generator: Adobe Illustrator 24.2.0, SVG Export Plug-In . SVG Version: 6.00 Build 0)  -->
<svg version="1.1"
	 id="레이어_1" xmlns:cc="http://creativecommons.org/ns#" xmlns:dc="http://purl.org/dc/elements/1.1/" xmlns:inkscape="http://www.inkscape.org/namespaces/inkscape" xmlns:rdf="http://www.w3.org/1999/02/22-rdf-syntax-ns#" xmlns:sodipodi="http://sodipodi.sourceforge.net/DTD/sodipodi-0.dtd" xmlns:svg="http://www.w3.org/2000/svg"
	 xmlns="http://www.w3.org/2000/svg" xmlns:xlink="http://www.w3.org/1999/xlink" x="0px" y="0px" viewBox="0 0 100 125"
	 style="enable-background:new 0 0 100 125;" xml:space="preserve">
<style type="text/css">
	.st0{fill:#CF9267;}
	.st1{fill:#FFFFFF;}
</style>
<g transform="translate(0,-952.36218)">
	<path class="st0" d="M66.2,1012.2c5.9-2.8,12.5-8.3,18.3-14.5c6.3-6.7,11.6-13.9,13.4-20.2c1.6-6.7-1.7-11.7-6.1-13.9
		c-3.4-1.2-6.8-1-10,0c0.1-0.7,0.1-1.3,0.2-2c0.1-1.5-1.2-2.9-2.7-2.9H19.7c-1.4,0-2.7,1.4-2.7,2.9l0,0c0,0.7,0.1,1.3,0.2,2
		c-3.2-1-7.2-0.8-10,0c-5.6,3.1-6.9,8.4-6.1,13.9c1.8,6.2,7.1,13.5,13.4,20.2c5.8,6.2,12.4,11.7,18.3,14.5l8.9,8.7H40v5.4h3.9
		l-1,16.2h-5.6v2.7h-2.7v2.7c-1.4,0-2.7,0-4.1,0c0,5.9,0,11.7,0,17.6H23v5.4h52.9v-5.4h-7.5c0-5.9,0-11.7,0-17.6c-1.4,0-2.7,0-4.1,0
		v-2.7h-2.7v-2.7h-5.6l-1-16.2h3.9v-5.4h-1.6C58.5,1019.6,65,1013.6,66.2,1012.2 M16.8,969.8c2,8.5,7.9,26,12.3,33.8
		c-3.5-2.6-7.2-5.9-10.6-9.6c-5.9-6.3-10.7-13.5-12.1-17.9c-0.4-3.4,0.8-6.3,3.1-7.5C12.2,968.2,14.7,967.9,16.8,969.8 M82.2,969.8
		c2-1.9,4.6-1.8,7.3-1.2c3.2,1.8,3.3,4.4,3.1,7.5c-1.3,4.5-6.2,11.6-12.1,17.9c-3.4,3.6-7.1,7-10.6,9.6
		C74.2,995.9,80.2,978.4,82.2,969.8"/>
</g>
<rect x="33.1" y="99" class="st1" width="32.2" height="14"/>
<rect x="26.8" y="108.7" class="st0" width="44.8" height="5.1"/>
<rect x="32.2" y="101.7" class="st0" width="34.5" height="3.7"/>
</svg>
