<?xml version="1.0" encoding="utf-8"?>
<!-- Generator: Adobe Illustrator 24.2.0, SVG Export Plug-In . SVG Version: 6.00 Build 0)  -->
<svg version="1.1"
	 id="레이어_1" xmlns:cc="http://creativecommons.org/ns#" xmlns:dc="http://purl.org/dc/elements/1.1/" xmlns:inkscape="http://www.inkscape.org/namespaces/inkscape" xmlns:rdf="http://www.w3.org/1999/02/22-rdf-syntax-ns#" xmlns:sodipodi="http://sodipodi.sourceforge.net/DTD/sodipodi-0.dtd" xmlns:svg="http://www.w3.org/2000/svg"
	 xmlns="http://www.w3.org/2000/svg" xmlns:xlink="http://www.w3.org/1999/xlink" x="0px" y="0px" viewBox="0 0 100 125"
	 style="enable-background:new 0 0 100 125;" xml:space="preserve">
<style type="text/css">
	.st0{fill:#EBC147;}
	.st1{fill:#FFFFFF;}
</style>
<g transform="translate(0,-952.36218)">
	<path class="st0" d="M50,960.4l-9.1,23.8L16,985.6l19.3,16.2l-6.4,24.7l12.9-8.5l3.2,4v3.6l-3,3.7h-4v11h-5v4h34v-4h-5v-11h-4
		l-3-3.7v-3.6l3.1-3.9l12.8,8.5l-6.3-24.7L84,985.7l-24.9-1.5L50,960.4z M50.4,987.4c-0.5,0.6-1,1.3-1.4,2.1c3.9,0.6,7.6,2,10.4,4.5
		C58,990.2,54.6,987.5,50.4,987.4z M47.8,987.6c-0.7,0.2-1.5,0.4-2.1,0.8c-2.5,5.1-3.4,8.5-2.9,12.5l1.3-1
		C44.5,995.4,45.5,991.2,47.8,987.6z M42.3,991c-1.4,1.7-2.3,4-2.3,6.4c0,1.4,0.3,2.8,0.8,4C40.2,997.7,40.5,995,42.3,991z
		 M46.5,996.4c-0.3,1.2-0.4,2.4-0.5,3.4l10.4,5.2c0.9-0.7,1.6-1.6,2.2-2.6C55.1,998.3,50,996.5,46.5,996.4L46.5,996.4z M50.1,1004
		c-1,1.3-2.2,2-3.6,2.7c0.8,0.3,1.5,0.5,2.4,0.6c1.3-0.7,2-1.4,2.7-2.5L50.1,1004z M53.4,1005.7c-0.3,0.5-0.6,1-1,1.4
		c0.7-0.2,1.5-0.5,2.1-0.8L53.4,1005.7z M50,1012.7l4.8,3.2l-3.3,4.1c-0.3,0.4-0.4,0.8-0.4,1.3v5c0,0.5,0.2,0.9,0.4,1.3l1.4,1.8
		h-5.7l1.4-1.8c0.3-0.4,0.4-0.8,0.4-1.3v-5c0-0.5-0.2-0.9-0.4-1.3l-3.3-4.2L50,1012.7z"/>
</g>
<rect x="40.3" y="79.4" class="st1" width="19.5" height="8.6"/>
<rect x="39.4" y="80.8" class="st0" width="21.1" height="2.8"/>
<rect x="36" y="85.3" class="st0" width="27.7" height="2.8"/>
</svg>
