<?xml version="1.0" encoding="utf-8"?>
<!-- Generator: Adobe Illustrator 24.2.0, SVG Export Plug-In . SVG Version: 6.00 Build 0)  -->
<svg version="1.1" id="레이어_1" xmlns="http://www.w3.org/2000/svg" xmlns:xlink="http://www.w3.org/1999/xlink" x="0px"
	 y="0px" viewBox="0 0 301 44" style="enable-background:new 0 0 301 44;" xml:space="preserve">
<style type="text/css">
	.st0{fill:#EFEEEE;}
	.st1{fill-rule:evenodd;clip-rule:evenodd;fill:#4779BD;}
	.st2{fill-rule:evenodd;clip-rule:evenodd;fill:#38A052;}
	.st3{fill-rule:evenodd;clip-rule:evenodd;fill:#F0B61A;}
	.st4{fill-rule:evenodd;clip-rule:evenodd;fill:#DD4335;}
	.st5{fill:none;}
	.st6{fill:#777778;}
	.st7{font-family:'YDIYGO350';}
	.st8{font-size:17.576px;}
</style>
<g>
	<path class="st0" d="M296.4,44H4.7C2.2,44,0,41.8,0,39.3V4.7C0,2.2,2.2,0,4.7,0h291.7c2.5,0,4.7,2.2,4.7,4.7v34.6
		C301,41.8,298.8,44,296.4,44z"/>
	<g id="logo_googleg_48dp" transform="translate(15.000000, 15.000000)">
		<path id="Shape" class="st1" d="M19.9,7.4c0-0.8,0-1.6-0.2-2.3H9.2v4.3h6.1c-0.3,1.4-1.1,2.6-2.2,3.4v2.8h3.6
			C18.7,13.6,19.9,10.8,19.9,7.4L19.9,7.4z"/>
		<path id="Shape_1_" class="st2" d="M9.2,18.2c2.9,0,5.6-0.9,7.4-2.6l-3.6-2.8c-0.9,0.6-2.3,1.1-3.7,1.1c-2.9,0-5.4-2-6.2-4.7h-3.7
			v2.9C1.1,15.8,4.9,18.2,9.2,18.2L9.2,18.2z"/>
		<path id="Shape_2_" class="st3" d="M3,9.2C2.8,8.6,2.7,7.9,2.7,7.1S2.8,5.7,3,4.9V2h-3.7C-1.5,3.5-2,5.2-2,6.9s0.5,3.6,1.2,5
			L3,9.2L3,9.2z"/>
		<path id="Shape_3_" class="st4" d="M9.2,0.4c1.7,0,3.1,0.6,4.2,1.7l3.3-3.3C14.8-3,12.2-4.1,9.2-4.1c-4.3,0-8.1,2.5-9.9,6.2L3,5.1
			C3.9,2.3,6.3,0.4,9.2,0.4L9.2,0.4z"/>
		<path id="Shape_4_" class="st5" d="M-2-4.1h22.3v22.3H-2V-4.1z"/>
	</g>
	<rect x="92.3" y="12.5" class="st5" width="157.5" height="21.7"/>
	<text transform="matrix(1 0 0 1 92.4112 25.9901)" class="st6 st7 st8">Login with Google</text>
</g>
</svg>
