<?xml version="1.0" encoding="utf-8"?>
<!-- Generator: Adobe Illustrator 24.2.0, SVG Export Plug-In . SVG Version: 6.00 Build 0)  -->
<svg version="1.1" id="격리_모드" xmlns="http://www.w3.org/2000/svg" xmlns:xlink="http://www.w3.org/1999/xlink" x="0px"
	 y="0px" viewBox="0 0 905 882" style="enable-background:new 0 0 905 882;" xml:space="preserve">
<style type="text/css">
	.st0{fill:#EEEEEE;}
	.st1{fill-rule:evenodd;clip-rule:evenodd;fill:#4285F4;}
	.st2{fill-rule:evenodd;clip-rule:evenodd;fill:#34A853;}
	.st3{fill-rule:evenodd;clip-rule:evenodd;fill:#FBBC05;}
	.st4{fill-rule:evenodd;clip-rule:evenodd;fill:#EA4335;}
	.st5{fill:none;}
	.st6{fill:#777777;}
	.st7{font-family:'YDIYGO350';}
	.st8{font-size:11px;}
</style>
<g>
	<path class="st0" d="M449.2,212.2h-188c-1.6,0-3-1.4-3-3v-22.3c0-1.6,1.4-3,3-3h188c1.6,0,3,1.4,3,3v22.3
		C452.2,210.8,450.8,212.2,449.2,212.2z"/>
	<g id="logo_googleg_48dp" transform="translate(15.000000, 15.000000)">
		<path id="Shape" class="st1" d="M265.7,183.3c0-0.5,0-1-0.1-1.5h-6.8v2.8h3.9c-0.2,0.9-0.7,1.7-1.4,2.2v1.8h2.3
			C264.9,187.3,265.7,185.5,265.7,183.3L265.7,183.3z"/>
		<path id="Shape_1_" class="st2" d="M258.8,190.3c1.9,0,3.6-0.6,4.8-1.7l-2.3-1.8c-0.6,0.4-1.5,0.7-2.4,0.7c-1.9,0-3.5-1.3-4-3
			h-2.4v1.9C253.6,188.7,256,190.3,258.8,190.3L258.8,190.3z"/>
		<path id="Shape_2_" class="st3" d="M254.8,184.5c-0.1-0.4-0.2-0.9-0.2-1.4c0-0.5,0.1-0.9,0.2-1.4v-1.9h-2.4
			c-0.5,1-0.8,2.1-0.8,3.2s0.3,2.3,0.8,3.2L254.8,184.5L254.8,184.5z"/>
		<path id="Shape_3_" class="st4" d="M258.8,178.8c1.1,0,2,0.4,2.7,1.1l2.1-2.1c-1.2-1.2-2.9-1.9-4.8-1.9c-2.8,0-5.2,1.6-6.4,4
			l2.4,1.9C255.4,180,256.9,178.8,258.8,178.8L258.8,178.8z"/>
		<path id="Shape_4_" class="st5" d="M251.6,175.9H266v14.4h-14.4V175.9z"/>
	</g>
	<rect x="317.7" y="191.9" class="st5" width="101.5" height="14"/>
	<text transform="matrix(1 0 0 1 317.6602 200.732)" class="st6 st7 st8">Login with Google</text>
</g>
</svg>
