<?xml version="1.0" encoding="utf-8"?>
<!-- Generator: Adobe Illustrator 24.2.0, SVG Export Plug-In . SVG Version: 6.00 Build 0)  -->
<svg version="1.1" id="레이어_1" xmlns="http://www.w3.org/2000/svg" xmlns:xlink="http://www.w3.org/1999/xlink" x="0px"
	 y="0px" viewBox="0 0 100 100" style="enable-background:new 0 0 100 100;" xml:space="preserve">
<style type="text/css">
	.st0{fill:#7660A8;}
</style>
<path class="st0" d="M49.5,36.3c-9.6,0-17.3,7.8-17.3,17.3c0,9.6,7.8,17.3,17.3,17.3s17.3-7.8,17.3-17.3
	C66.8,44.1,59,36.3,49.5,36.3z M49.5,67c-7.4,0-13.4-6-13.4-13.4c0-7.4,6-13.4,13.4-13.4c7.4,0,13.4,6,13.4,13.4
	C62.8,61,56.8,67,49.5,67z"/>
<path class="st0" d="M30.3,27.5c-0.1-0.1-0.1-0.1-0.2-0.1H19.8c-0.1,0-0.2,0.1-0.2,0.1L19.1,30h11.7L30.3,27.5z"/>
<path class="st0" d="M82.8,32.2c-0.3-0.3-0.6-0.4-1-0.4H64.3l-5.9-8.8c-0.3-0.5-0.7-0.7-1.2-0.7H41.8c-0.5,0-1,0.3-1.2,0.7l0,0.1
	l-5.9,8.7H17.2c-0.8,0-1.5,0.7-1.5,1.5v40.9c0,0.8,0.7,1.5,1.5,1.5h64.6c0.8,0,1.5-0.7,1.5-1.5h0V33.2C83.2,32.8,83,32.4,82.8,32.2z
	 M49.5,72.7c-10.5,0-19.1-8.6-19.1-19.1c0-10.5,8.6-19.1,19.1-19.1c10.5,0,19.1,8.6,19.1,19.1S60,72.7,49.5,72.7z M75.3,43.3
	c-2.4,0-4.4-2-4.4-4.4c0-2.4,2-4.4,4.4-4.4c2.4,0,4.4,2,4.4,4.4C79.7,41.3,77.7,43.3,75.3,43.3z"/>
<path class="st0" d="M75.3,36.3c-1.4,0-2.6,1.2-2.6,2.6c0,1.4,1.2,2.6,2.6,2.6c1.4,0,2.6-1.2,2.6-2.6C77.9,37.5,76.7,36.3,75.3,36.3
	z"/>
<g>
	<polygon class="st0" points="7.1,7.1 30.6,7.1 30.6,0 0,0 0,30.6 7.1,30.6 	"/>
	<polygon class="st0" points="69.4,0 69.4,7.1 92.9,7.1 92.9,30.6 100,30.6 100,0 	"/>
	<polygon class="st0" points="92.9,92.9 69.4,92.9 69.4,100 100,100 100,69.4 92.9,69.4 	"/>
	<polygon class="st0" points="7.1,69.4 0,69.4 0,100 30.6,100 30.6,92.9 7.1,92.9 	"/>
</g>
</svg>
