<?xml version="1.0" encoding="utf-8"?>
<!-- Generator: Adobe Illustrator 24.2.0, SVG Export Plug-In . SVG Version: 6.00 Build 0)  -->
<svg version="1.1" id="레이어_1" xmlns="http://www.w3.org/2000/svg" xmlns:xlink="http://www.w3.org/1999/xlink" x="0px"
	 y="0px" viewBox="0 0 100 125" style="enable-background:new 0 0 100 125;" xml:space="preserve">
<style type="text/css">
	.st0{fill:#5E5E5E;}
</style>
<path class="st0" d="M89.4,37.6c-1.7-1.6-2.3-4-1.4-6.1l0.8-1.9c1.3-3-0.4-6.3-3.5-7.2l-2.1-0.5c-2.2-0.6-3.7-2.6-3.9-4.9l-0.1-2.1
	c-0.1-3.2-3.1-5.6-6.2-5l-1.9,0.4c-2.3,0.4-4.5-0.6-5.6-2.7l-1-1.8c-1.6-2.8-5.2-3.6-7.8-1.8L55.1,5c-1.8,1.3-4.4,1.3-6.2,0
	l-1.7-1.3c-2.6-1.9-6.3-1-7.9,1.8l-1,1.8c-1.2,2.1-3.4,3.1-5.7,2.7l-2.1-0.4c-3.2-0.5-6.1,1.8-6.3,5L24,16.8
	c-0.1,2.3-1.7,4.3-3.9,4.9l-2.1,0.5c-3.1,0.9-4.8,4.3-3.5,7.2l0.8,1.9c0.9,2.1,0.3,4.5-1.4,6.1l-1.6,1.4c-2.5,2.1-2.5,5.9,0,8
	l1.6,1.4c1.7,1.6,2.3,4,1.4,6.1l-0.8,1.9c-1.3,3,0.4,6.3,3.5,7.2l2.1,0.5c2.2,0.6,3.7,2.6,3.9,4.9l0.1,2.1c0.1,3.2,3.1,5.6,6.2,5
	l2.1-0.4c2.3-0.4,4.5,0.6,5.6,2.7l1,1.8c1.6,2.8,5.2,3.6,7.8,1.8l1.7-1.2c1.8-1.3,4.4-1.3,6.2,0l1.7,1.3c2.6,1.9,6.3,1,7.9-1.8
	l1-1.8c1.2-2.1,3.4-3.1,5.7-2.7l2.1,0.4c3.2,0.5,6.1-1.8,6.3-5l0.1-2.1c0.1-2.3,1.7-4.3,3.9-4.9l2.1-0.5c3.1-0.9,4.8-4.3,3.5-7.2
	l-0.8-1.9c-0.9-2.1-0.3-4.5,1.4-6.1l1.6-1.4c2.5-2.1,2.5-5.9,0-8L89.4,37.6z M51.7,69.1c-14.5,0-26.1-11.8-26.1-26.1
	c0-14.5,11.8-26.1,26.1-26.1c14.5,0,26.1,11.8,26.1,26.1S66.2,69.1,51.7,69.1z M51.7,24c-10.5,0-18.9,8.5-18.9,18.9s8.4,19,18.9,19
	S70.6,53.4,70.6,43S62.2,24,51.7,24z M63.2,41l-5.3,4.3l1.6,6.6c0.3,0.9-0.5,1.8-1.3,1.8c-0.3,0-0.5-0.1-0.8-0.3l-5.8-3.6l-5.7,3.6
	c-0.3,0.1-0.5,0.3-0.8,0.3c-0.9,0-1.6-0.8-1.3-1.8l1.6-6.6L40.1,41c-1-0.8-0.4-2.5,0.8-2.5l7-0.5l2.6-6.3c0.3-0.6,0.8-0.9,1.3-0.9
	s1,0.3,1.3,0.9l2.6,6.3l6.7,0.5C63.6,38.5,64.2,40.1,63.2,41z M43.7,91c1.3,0,2.7-0.3,3.9-0.6l-13.3,33.5c-0.4,1-1.8,1.2-2.3,0.1
	l-6.3-11.1c-0.3-0.4-0.6-0.5-1-0.4l-11.9,3.7c-1,0.4-2.1-0.6-1.6-1.7l12.7-31.7c1.7,0.8,3.6,1.3,5.6,1.3c0.8,0,1.6-0.1,2.3-0.3h0.3
	l0.1,0.3C34.2,88.3,38.8,91,43.7,91z M92.3,114.9c0.4,1-0.5,2.1-1.6,1.7l-11.9-3.7c-0.4-0.1-0.8,0-1,0.4l-6.3,11.1
	c-0.5,0.9-1.9,0.9-2.3-0.1L55.7,90.6c1.3,0.4,2.6,0.5,3.9,0.5c4.9,0,9.3-2.6,11.6-6.9l0.1-0.3h0.3c0.8,0.1,1.6,0.3,2.3,0.3
	c2.1,0,3.9-0.5,5.7-1.3L92.3,114.9z"/>
</svg>
