<?xml version="1.0" encoding="utf-8"?>
<!-- Generator: Adobe Illustrator 24.2.0, SVG Export Plug-In . SVG Version: 6.00 Build 0)  -->
<svg version="1.1" id="격리_모드" xmlns="http://www.w3.org/2000/svg" xmlns:xlink="http://www.w3.org/1999/xlink" x="0px"
	 y="0px" viewBox="0 0 905 882" style="enable-background:new 0 0 905 882;" xml:space="preserve">
<style type="text/css">
	.st0{fill:#03C75A;}
	.st1{fill:#FFFFFF;}
</style>
<g>
	<path class="st0" d="M449.2,213h-188c-1.6,0-3-1.4-3-3v-23.7c0-1.6,1.4-3,3-3h188c1.6,0,3,1.4,3,3V210
		C452.2,211.7,450.8,213,449.2,213z"/>
	<polygon class="st1" points="275.5,199.1 271.1,192.3 267.3,192.3 267.3,205.1 271.2,205.1 271.2,198.2 275.7,205.1 279.4,205.1 
		279.4,192.3 275.5,192.3 	"/>
	<g>
		<path class="st1" d="M320,193.5v7.8h4.4v1h-5.5v-8.8H320z"/>
		<path class="st1" d="M325,197.8c0.1-0.4,0.3-0.8,0.6-1.1s0.6-0.5,0.9-0.7c0.4-0.2,0.8-0.3,1.2-0.3c0.5,0,0.9,0.1,1.3,0.3
			c0.4,0.2,0.7,0.4,0.9,0.7s0.4,0.7,0.6,1.1s0.2,0.8,0.2,1.3c0,0.5-0.1,0.9-0.2,1.3c-0.1,0.4-0.3,0.8-0.6,1.1s-0.5,0.5-0.9,0.7
			c-0.4,0.2-0.8,0.3-1.3,0.3c-0.5,0-0.9-0.1-1.2-0.3s-0.7-0.4-0.9-0.7s-0.4-0.7-0.6-1.1c-0.1-0.4-0.2-0.8-0.2-1.3
			C324.8,198.7,324.9,198.2,325,197.8z M326,200.2c0.1,0.3,0.2,0.6,0.4,0.8c0.2,0.2,0.4,0.4,0.6,0.5s0.5,0.2,0.7,0.2
			c0.3,0,0.5-0.1,0.7-0.2c0.2-0.1,0.4-0.3,0.6-0.5c0.2-0.2,0.3-0.5,0.4-0.8c0.1-0.3,0.1-0.6,0.1-1c0-0.4,0-0.7-0.1-1
			c-0.1-0.3-0.2-0.6-0.4-0.8c-0.2-0.2-0.4-0.4-0.6-0.5c-0.2-0.1-0.5-0.2-0.7-0.2c-0.3,0-0.5,0.1-0.7,0.2s-0.4,0.3-0.6,0.5
			c-0.2,0.2-0.3,0.5-0.4,0.8c-0.1,0.3-0.1,0.6-0.1,1C325.9,199.5,325.9,199.9,326,200.2z"/>
		<path class="st1" d="M336.3,204.1c-0.4,0.5-1.1,0.8-2.1,0.8c-0.3,0-0.6,0-0.8-0.1c-0.3-0.1-0.6-0.2-0.8-0.3
			c-0.2-0.1-0.4-0.3-0.6-0.6c-0.2-0.2-0.2-0.5-0.3-0.9h1c0,0.2,0.1,0.4,0.2,0.5c0.1,0.1,0.2,0.2,0.4,0.3c0.1,0.1,0.3,0.1,0.5,0.2
			c0.2,0,0.3,0.1,0.5,0.1c0.3,0,0.6-0.1,0.8-0.2c0.2-0.1,0.4-0.3,0.6-0.5c0.1-0.2,0.3-0.5,0.3-0.8c0.1-0.3,0.1-0.6,0.1-1v-0.4h0
			c-0.2,0.4-0.4,0.7-0.8,0.9c-0.3,0.2-0.7,0.3-1.1,0.3c-0.4,0-0.8-0.1-1.2-0.3c-0.3-0.2-0.6-0.4-0.8-0.7c-0.2-0.3-0.4-0.6-0.5-1
			c-0.1-0.4-0.2-0.8-0.2-1.2c0-0.4,0-0.8,0.1-1.2c0.1-0.4,0.2-0.8,0.5-1.1c0.2-0.3,0.5-0.6,0.9-0.8c0.4-0.2,0.8-0.3,1.3-0.3
			c0.4,0,0.7,0.1,1,0.3c0.3,0.2,0.6,0.4,0.7,0.8h0v-0.9h0.9v5.8C336.9,202.8,336.7,203.6,336.3,204.1z M335,201.3
			c0.2-0.1,0.4-0.3,0.5-0.6c0.1-0.2,0.2-0.5,0.3-0.8c0.1-0.3,0.1-0.6,0.1-0.9c0-0.3,0-0.6-0.1-0.8c-0.1-0.3-0.2-0.5-0.3-0.7
			c-0.1-0.2-0.3-0.4-0.5-0.5c-0.2-0.1-0.5-0.2-0.8-0.2c-0.3,0-0.6,0.1-0.8,0.2c-0.2,0.1-0.4,0.3-0.5,0.5c-0.1,0.2-0.2,0.5-0.3,0.7
			c-0.1,0.3-0.1,0.6-0.1,0.9c0,0.3,0,0.6,0.1,0.9c0.1,0.3,0.1,0.5,0.3,0.8c0.1,0.2,0.3,0.4,0.5,0.6c0.2,0.1,0.5,0.2,0.8,0.2
			C334.5,201.5,334.8,201.4,335,201.3z"/>
		<path class="st1" d="M339.1,194.8v-1.3h1v1.3H339.1z M340,195.9v6.4h-1v-6.4H340z"/>
		<path class="st1" d="M342.5,195.9v1h0c0.4-0.8,1.1-1.2,1.9-1.2c0.4,0,0.7,0.1,1,0.2c0.3,0.1,0.5,0.3,0.6,0.5
			c0.2,0.2,0.3,0.5,0.3,0.7c0.1,0.3,0.1,0.6,0.1,0.9v4.2h-1V198c0-0.4-0.1-0.7-0.3-0.9c-0.2-0.2-0.5-0.3-0.9-0.3
			c-0.3,0-0.6,0-0.8,0.1c-0.2,0.1-0.4,0.2-0.5,0.4c-0.1,0.2-0.3,0.4-0.3,0.6c-0.1,0.2-0.1,0.5-0.1,0.8v3.6h-1v-6.4H342.5z"/>
		<path class="st1" d="M356.1,202.3l-1.2-5.1h0l-1.2,5.1h-1.1l-1.9-6.4h1.1l1.4,5.2h0l1.2-5.2h1.1l1.2,5.2h0l1.3-5.2h1l-1.9,6.4
			H356.1z"/>
		<path class="st1" d="M360,194.8v-1.3h1v1.3H360z M361,195.9v6.4h-1v-6.4H361z"/>
		<path class="st1" d="M365.1,195.9v0.9h-1.2v4c0,0.1,0,0.2,0,0.3c0,0.1,0.1,0.1,0.1,0.2c0.1,0,0.1,0.1,0.2,0.1c0.1,0,0.2,0,0.4,0
			h0.5v0.9h-0.8c-0.3,0-0.5,0-0.7-0.1c-0.2,0-0.3-0.1-0.4-0.2c-0.1-0.1-0.2-0.2-0.2-0.4c-0.1-0.2-0.1-0.4-0.1-0.7v-4.1h-1v-0.9h1
			V194h1v1.9H365.1z"/>
		<path class="st1" d="M367.1,193.5v3.4h0c0.1-0.2,0.2-0.4,0.3-0.5c0.1-0.1,0.3-0.2,0.5-0.3c0.2-0.1,0.4-0.1,0.5-0.2
			c0.2,0,0.4-0.1,0.5-0.1c0.4,0,0.7,0.1,1,0.2c0.3,0.1,0.5,0.3,0.6,0.5c0.2,0.2,0.3,0.5,0.3,0.7c0.1,0.3,0.1,0.6,0.1,0.9v4.2h-1V198
			c0-0.4-0.1-0.7-0.3-0.9c-0.2-0.2-0.5-0.3-0.9-0.3c-0.3,0-0.6,0-0.8,0.1c-0.2,0.1-0.4,0.2-0.5,0.4c-0.1,0.2-0.3,0.4-0.3,0.6
			c-0.1,0.2-0.1,0.5-0.1,0.8v3.6h-1v-8.8H367.1z"/>
		<path class="st1" d="M377.1,193.5l4.3,7.2h0v-7.2h1v8.8h-1.2l-4.3-7.1h0v7.1h-1v-8.8H377.1z"/>
		<path class="st1" d="M387.7,193.5l3.2,8.8h-1.2l-0.9-2.7h-3.5l-0.9,2.7h-1.1l3.2-8.8H387.7z M388.5,198.7l-1.4-4.1h0l-1.4,4.1
			H388.5z"/>
		<path class="st1" d="M393.2,202.3l-2.9-8.8h1.2l2.4,7.6h0l2.4-7.6h1.1l-2.9,8.8H393.2z"/>
		<path class="st1" d="M404,193.5v1h-4.6v2.8h4.3v1h-4.3v3.1h4.6v1h-5.7v-8.8H404z"/>
		<path class="st1" d="M409.2,193.5c0.8,0,1.4,0.2,1.8,0.6c0.4,0.4,0.7,1,0.7,1.7c0,0.5-0.1,1-0.3,1.4c-0.2,0.4-0.6,0.7-1.1,0.8v0
			c0.2,0,0.4,0.1,0.6,0.2c0.1,0.1,0.3,0.3,0.4,0.4c0.1,0.2,0.2,0.3,0.2,0.5c0,0.2,0.1,0.4,0.1,0.6c0,0.2,0,0.4,0,0.7
			c0,0.2,0,0.4,0.1,0.7c0,0.2,0.1,0.4,0.1,0.6c0.1,0.2,0.1,0.4,0.3,0.5h-1.2c-0.1-0.1-0.1-0.2-0.2-0.4c0-0.2,0-0.3-0.1-0.5
			c0-0.2,0-0.4,0-0.6c0-0.2,0-0.4-0.1-0.7c0-0.2-0.1-0.4-0.1-0.6c0-0.2-0.1-0.4-0.2-0.5c-0.1-0.1-0.2-0.3-0.4-0.3
			c-0.2-0.1-0.4-0.1-0.6-0.1h-2.7v3.8h-1.1v-8.8H409.2z M409.4,197.5c0.2,0,0.4-0.1,0.6-0.2c0.2-0.1,0.3-0.3,0.4-0.5
			c0.1-0.2,0.2-0.5,0.2-0.8c0-0.4-0.1-0.8-0.3-1.1c-0.2-0.3-0.6-0.4-1.1-0.4h-2.7v3.1h2.3C409,197.6,409.2,197.5,409.4,197.5z"/>
	</g>
</g>
</svg>
