<?xml version="1.0" encoding="utf-8"?>
<!-- Generator: Adobe Illustrator 24.2.0, SVG Export Plug-In . SVG Version: 6.00 Build 0)  -->
<svg version="1.1" id="레이어_1" xmlns="http://www.w3.org/2000/svg" xmlns:xlink="http://www.w3.org/1999/xlink" x="0px"
	 y="0px" viewBox="0 0 301 44" style="enable-background:new 0 0 301 44;" xml:space="preserve">
<style type="text/css">
	.st0{fill:#3DB15B;}
	.st1{fill:#FFFFFF;}
</style>
<g>
	<path class="st0" d="M296.4,44H5.2c-2.5,0-4.6-2.1-4.6-4.4V4.9c0-2.3,2.2-4.4,4.6-4.4h291.2c2.5,0,4.6,2.1,4.6,4.4v34.7
		C301,42.1,298.8,44,296.4,44z"/>
	<polygon class="st1" points="27,22.9 19.6,11.5 13.2,11.5 13.2,33 19.7,33 19.7,21.4 27.3,33 33.5,33 33.5,11.5 27,11.5 	"/>
	<g>
		<path class="st1" d="M95.8,14.3v12.8h7.2v1.6h-9V14.3H95.8z"/>
		<path class="st1" d="M104,21.3c0.2-0.7,0.5-1.3,1-1.8c0.5-0.5,1-0.8,1.5-1.1c0.7-0.3,1.3-0.5,2-0.5c0.8,0,1.5,0.2,2.1,0.5
			c0.7,0.3,1.1,0.7,1.5,1.1c0.3,0.5,0.7,1.1,1,1.8c0.3,0.7,0.3,1.3,0.3,2.1c0,0.8-0.2,1.5-0.3,2.1c-0.2,0.7-0.5,1.3-1,1.8
			c-0.5,0.5-0.8,0.8-1.5,1.1c-0.7,0.3-1.3,0.5-2.1,0.5s-1.5-0.2-2-0.5c-0.5-0.3-1.1-0.7-1.5-1.1c-0.3-0.5-0.7-1.1-1-1.8
			c-0.2-0.7-0.3-1.3-0.3-2.1C103.7,22.8,103.9,22,104,21.3z M105.7,25.3c0.2,0.5,0.3,1,0.7,1.3c0.3,0.3,0.7,0.7,1,0.8
			c0.3,0.2,0.8,0.3,1.1,0.3c0.5,0,0.8-0.2,1.1-0.3c0.3-0.2,0.7-0.5,1-0.8c0.3-0.3,0.5-0.8,0.7-1.3s0.2-1,0.2-1.6s0-1.1-0.2-1.6
			s-0.3-1-0.7-1.3c-0.3-0.3-0.7-0.7-1-0.8c-0.3-0.2-0.8-0.3-1.1-0.3c-0.5,0-0.8,0.2-1.1,0.3c-0.3,0.2-0.7,0.5-1,0.8
			s-0.5,0.8-0.7,1.3s-0.2,1-0.2,1.6C105.5,24.1,105.5,24.8,105.7,25.3z"/>
		<path class="st1" d="M122.6,31.7c-0.7,0.8-1.8,1.3-3.4,1.3c-0.5,0-1,0-1.3-0.2c-0.5-0.2-1-0.3-1.3-0.5c-0.3-0.2-0.7-0.5-1-1
			c-0.3-0.3-0.3-0.8-0.5-1.5h1.6c0,0.3,0.2,0.7,0.3,0.8s0.3,0.3,0.7,0.5c0.2,0.2,0.5,0.2,0.8,0.3c0.3,0,0.5,0.2,0.8,0.2
			c0.5,0,1-0.2,1.3-0.3c0.3-0.2,0.7-0.5,1-0.8c0.2-0.3,0.5-0.8,0.5-1.3c0.2-0.5,0.2-1,0.2-1.6v-0.7l0,0c-0.3,0.7-0.7,1.1-1.3,1.5
			c-0.5,0.3-1.1,0.5-1.8,0.5c-0.7,0-1.3-0.2-2-0.5c-0.5-0.3-1-0.7-1.3-1.1c-0.3-0.5-0.7-1-0.8-1.6s-0.3-1.3-0.3-2c0-0.7,0-1.3,0.2-2
			s0.3-1.3,0.8-1.8c0.3-0.5,0.8-1,1.5-1.3c0.7-0.3,1.3-0.5,2.1-0.5c0.7,0,1.1,0.2,1.6,0.5c0.5,0.3,1,0.7,1.1,1.3l0,0v-1.5h1.5v9.5
			C123.6,29.5,123.2,30.9,122.6,31.7z M120.5,27.1c0.3-0.2,0.7-0.5,0.8-1c0.2-0.3,0.3-0.8,0.5-1.3c0.2-0.5,0.2-1,0.2-1.5
			c0-0.5,0-1-0.2-1.3c-0.2-0.5-0.3-0.8-0.5-1.1c-0.2-0.3-0.5-0.7-0.8-0.8s-0.8-0.3-1.3-0.3c-0.5,0-1,0.2-1.3,0.3
			c-0.3,0.2-0.7,0.5-0.8,0.8c-0.2,0.3-0.3,0.8-0.5,1.1c-0.2,0.5-0.2,1-0.2,1.5c0,0.5,0,1,0.2,1.5c0.2,0.5,0.2,0.8,0.5,1.3
			c0.2,0.3,0.5,0.7,0.8,1c0.3,0.2,0.8,0.3,1.3,0.3C119.6,27.4,120.1,27.2,120.5,27.1z"/>
		<path class="st1" d="M127.2,16.4v-2.1h1.6v2.1H127.2z M128.7,18.2v10.5H127V18.2H128.7z"/>
		<path class="st1" d="M132.8,18.2v1.6l0,0c0.7-1.3,1.8-2,3.1-2c0.7,0,1.1,0.2,1.6,0.3c0.5,0.2,0.8,0.5,1,0.8
			c0.3,0.3,0.5,0.8,0.5,1.1c0.2,0.5,0.2,1,0.2,1.5v6.9h-1.6v-6.9c0-0.7-0.2-1.1-0.5-1.5c-0.3-0.3-0.8-0.5-1.5-0.5
			c-0.5,0-1,0-1.3,0.2c-0.3,0.2-0.7,0.3-0.8,0.7c-0.2,0.3-0.5,0.7-0.5,1c-0.2,0.3-0.2,0.8-0.2,1.3v5.9h-1.6V18.2L132.8,18.2
			L132.8,18.2z"/>
		<path class="st1" d="M155.1,28.7l-2-8.4l0,0l-2,8.4h-1.8l-3.1-10.5h1.8l2.3,8.5l0,0l2-8.5h1.8l2,8.5l0,0l2.1-8.5h1.6l-3.1,10.5
			H155.1z"/>
		<path class="st1" d="M161.5,16.4v-2.1h1.6v2.1H161.5z M163.1,18.2v10.5h-1.6V18.2H163.1z"/>
		<path class="st1" d="M169.8,18.2v1.5h-2v6.6c0,0.2,0,0.3,0,0.5c0,0.2,0.2,0.2,0.2,0.3c0.2,0,0.2,0.2,0.3,0.2s0.3,0,0.7,0h0.8v1.5
			h-1.3c-0.5,0-0.8,0-1.1-0.2c-0.3,0-0.5-0.2-0.7-0.3c-0.2-0.2-0.3-0.3-0.3-0.7c-0.2-0.3-0.2-0.7-0.2-1.1v-6.7h-1.6v-1.5h1.6v-3.1
			h1.6v3.1H169.8z"/>
		<path class="st1" d="M173.1,14.3v5.6l0,0c0.2-0.3,0.3-0.7,0.5-0.8c0.2-0.2,0.5-0.3,0.8-0.5c0.3-0.2,0.7-0.2,0.8-0.3
			c0.3,0,0.7-0.2,0.8-0.2c0.7,0,1.1,0.2,1.6,0.3c0.5,0.2,0.8,0.5,1,0.8c0.3,0.3,0.5,0.8,0.5,1.1c0.2,0.5,0.2,1,0.2,1.5v6.9h-1.6
			v-7.1c0-0.7-0.2-1.1-0.5-1.5c-0.3-0.3-0.8-0.5-1.5-0.5c-0.5,0-1,0-1.3,0.2c-0.3,0.2-0.7,0.3-0.8,0.7c-0.2,0.3-0.5,0.7-0.5,1
			c-0.2,0.3-0.2,0.8-0.2,1.3v5.9h-1.6V14.3L173.1,14.3L173.1,14.3z"/>
		<path class="st1" d="M189.5,14.3l7.1,11.8l0,0V14.3h1.6v14.4h-2l-7.1-11.6l0,0v11.6h-1.6V14.3H189.5z"/>
		<path class="st1" d="M206.9,14.3l5.2,14.4h-2l-1.5-4.4H203l-1.5,4.4h-1.8l5.2-14.4H206.9z M208.2,22.8l-2.3-6.7l0,0l-2.3,6.7
			H208.2z"/>
		<path class="st1" d="M215.9,28.7l-4.8-14.4h2l3.9,12.5l0,0l3.9-12.5h1.8l-4.8,14.4H215.9z"/>
		<path class="st1" d="M233.6,14.3v1.6h-7.5v4.6h7.1v1.6h-7.1v5.1h7.5v1.6h-9.4V14.5h9.4V14.3z"/>
		<path class="st1" d="M242.2,14.3c1.3,0,2.3,0.3,3,1c0.7,0.7,1.1,1.6,1.1,2.8c0,0.8-0.2,1.6-0.5,2.3c-0.3,0.7-1,1.1-1.8,1.3l0,0
			c0.3,0,0.7,0.2,1,0.3c0.2,0.2,0.5,0.5,0.7,0.7c0.2,0.3,0.3,0.5,0.3,0.8c0,0.3,0.2,0.7,0.2,1c0,0.3,0,0.7,0,1.1
			c0,0.3,0,0.7,0.2,1.1c0,0.3,0.2,0.7,0.2,1c0.2,0.3,0.2,0.7,0.5,0.8h-2c-0.2-0.2-0.2-0.3-0.3-0.7c0-0.3,0-0.5-0.2-0.8
			c0-0.3,0-0.7,0-1c0-0.3,0-0.7-0.2-1.1c0-0.3-0.2-0.7-0.2-1c0-0.3-0.2-0.7-0.3-0.8s-0.3-0.5-0.7-0.5c-0.3-0.2-0.7-0.2-1-0.2h-4.4
			v6.2h-1.8V14.3L242.2,14.3L242.2,14.3z M242.5,20.9c0.3,0,0.7-0.2,1-0.3c0.3-0.2,0.5-0.5,0.7-0.8c0.2-0.3,0.3-0.8,0.3-1.3
			c0-0.7-0.2-1.3-0.5-1.8c-0.3-0.5-1-0.7-1.8-0.7h-4.4V21h3.8C241.8,21,242.2,20.9,242.5,20.9z"/>
	</g>
</g>
</svg>
