<?xml version="1.0" encoding="utf-8"?>
<!-- Generator: Adobe Illustrator 24.2.0, SVG Export Plug-In . SVG Version: 6.00 Build 0)  -->
<svg version="1.1" xmlns="http://www.w3.org/2000/svg" xmlns:xlink="http://www.w3.org/1999/xlink" x="0px" y="0px"
	 viewBox="0 0 300 250" style="enable-background:new 0 0 300 250;" xml:space="preserve">
<style type="text/css">
	.st0{fill:#CCCCCC;}
	.st1{fill:#FFFFFF;}
	.st2{font-family:'AppleSDGothicNeoB00';}
	.st3{font-size:12px;}
</style>
<g id="레이어_2">
	<rect class="st0" width="300" height="250"/>
</g>
<g id="레이어_1">
	<g>
		<g>
			<polygon class="st1" points="192.2,82.6 165.7,101.5 151.8,111.4 150,112.7 155.2,121.3 166.3,104.7 185.5,140.6 113.8,140.6 
				115.5,137.4 111.4,140.3 107,143.4 104.8,145 102.6,146.6 102.6,151.8 196.7,151.8 196.7,79.3 194.5,80.9 			"/>
			<path class="st1" d="M211.1,58l-14.4,10.3v-5.5v-5.2h-94.1v72.4v5.5l-17,12.1l2.6,3.7l14.4-10.3l2.2-1.6l2.2-1.6l9-6.4l4.1-2.9
				l4.1-2.9l21.7-15.5l1.8-1.3l1.8-1.3L192.2,77l2.2-1.6l2.2-1.6l17-12.1L211.1,58z M177.3,77c0,3.1-2.6,5.6-5.7,5.6
				c-0.7,0-1.4-0.1-2-0.4c-2.2-0.8-3.7-2.8-3.7-5.2c0-3,2.6-5.5,5.7-5.5c3.1,0,5.6,2.3,5.7,5.2C177.3,76.8,177.3,76.9,177.3,77z
				 M143.5,106.3l-14.7,10.5l-4.1,2.9l4.7-8.8l9.1-17.2l4.5,7.5l2.3,3.9L143.5,106.3z"/>
		</g>
	</g>
	<text transform="matrix(1 0 0 1 39.4207 188.6474)" class="st1 st2 st3">새로 생성하는 챌린지의 이미지를 등록해주세요.</text>
</g>
</svg>
